<?xml version="1.0" encoding="utf-8"?>
<!-- Generator: Adobe Illustrator 20.1.0, SVG Export Plug-In . SVG Version: 6.00 Build 0)  -->
<svg version="1.1" id="レイヤー_1" xmlns="http://www.w3.org/2000/svg" xmlns:xlink="http://www.w3.org/1999/xlink" x="0px"
	 y="0px" viewBox="0 0 48 48" style="enable-background:new 0 0 48 48;" xml:space="preserve">
<style type="text/css">
	.st0{fill:#3498DB;}
</style>
<path class="st0" d="M7.2,0C3.2,0,0,3.2,0,7.2v33.6c0,4,3.2,7.2,7.2,7.2h33.6c4,0,7.2-3.2,7.2-7.2V7.2c0-4-3.2-7.2-7.2-7.2H7.2z
	 M7.2,4.8h33.6c1.3,0,2.4,1.1,2.4,2.4v33.6c0,1.3-1.1,2.4-2.4,2.4H7.2c-1.3,0-2.4-1.1-2.4-2.4V7.2C4.8,5.9,5.9,4.8,7.2,4.8z M12,12
	v24h6.3c2.4,0,3.9-0.2,4.9-0.4c1.1-0.2,2-0.5,2.8-0.9c0.9-0.5,1.5-1.4,2-2.3c0.5-1,0.7-2,0.7-3.3c0-1.8-0.4-3.1-1.3-4.2
	c-0.9-1.1-2-1.7-3.5-1.8c1.4-0.4,2.2-1,2.8-1.8c0.6-0.8,1-1.9,1-3.2c0-1.1-0.2-2-0.6-2.8c-0.4-0.8-1-1.5-1.8-1.9
	c-0.7-0.4-1.6-0.7-2.5-0.9c-1-0.2-2.2-0.4-4.6-0.4H12z M31.2,12v16.8H36V12H31.2z M16.8,16.8h1.5c1.7,0,2.7,0.2,3.3,0.6
	c0.6,0.4,0.9,1,0.9,1.9c0,0.9-0.4,1.4-1,1.8c-0.6,0.3-1.6,0.5-3.3,0.5h-1.4V16.8z M16.8,26.4h2.4c1.6,0,2.6,0.2,3.1,0.5
	c0.6,0.4,1,1.1,1,2c0,0.8-0.4,1.4-1,1.8c-0.6,0.4-1.6,0.4-3.1,0.4h-2.3V26.4z M33.6,31.2c-1.3,0-2.4,1.1-2.4,2.4
	c0,1.3,1.1,2.4,2.4,2.4s2.4-1.1,2.4-2.4C36,32.2,34.9,31.2,33.6,31.2z"/>
</svg>
