<svg xmlns="http://www.w3.org/2000/svg" viewBox="0 0 24 24" width="48" height="48" style="fill: rgb(52, 152, 219);">
    <path d="M 5 2 C 3.346 2 2 3.346 2 5 L 2 19 C 2 20.654 3.346 22 5 22 L 19 22 C 20.654 22 22 20.654 22 19 L 22 5 C 22 3.346 20.654 2 19 2 L 5 2 z M 5 4 L 19 4 C 19.551 4 20 4.449 20 5 L 20 19 C 20 19.551 19.551 20 19 20 L 5 20 C 4.449 20 4 19.551 4 19 L 4 5 C 4 4.449 4.449 4 5 4 z M 7 7 L 7 17 L 9.625 17 C 10.64 17 11.2405 16.91875 11.6875 16.84375 C 12.1345 16.76575 12.53975 16.64975 12.84375 16.46875 C 13.21975 16.24875 13.4875 15.901 13.6875 15.5 C 13.8895 15.098 14 14.656 14 14.125 C 14 13.39 13.82675 12.815 13.46875 12.375 C 13.11275 11.934 12.636 11.679 12 11.625 C 12.566 11.454 12.9275 11.21 13.1875 10.875 C 13.4465 10.545 13.59375 10.09425 13.59375 9.53125 C 13.59375 9.08625 13.51375 8.68375 13.34375 8.34375 C 13.16875 8.00475 12.92275 7.73425 12.59375 7.53125 C 12.30475 7.35525 11.93125 7.23025 11.53125 7.15625 C 11.12925 7.08725 10.634 7 9.625 7 L 7 7 z M 15 7 L 15 14 L 17 14 L 17 7 L 15 7 z M 9 9 L 9.625 9 C 10.317 9 10.76 9.099 11 9.25 C 11.237 9.402 11.375 9.65825 11.375 10.03125 C 11.375 10.38925 11.22275 10.63325 10.96875 10.78125 C 10.71175 10.92625 10.28075 11 9.59375 11 L 9 11 L 9 9 z M 9 13 L 10 13 C 10.647 13 11.0745 13.06675 11.3125 13.21875 C 11.5545 13.37075 11.71875 13.6765 11.71875 14.0625 C 11.71875 14.4105 11.54425 14.6635 11.28125 14.8125 C 11.02025 14.9625 10.59975 15 9.96875 15 L 9 15 L 9 13 z M 16 15 C 15.447715 15 15 15.447715 15 16 C 15 16.552285 15.447715 17 16 17 C 16.552284 17 17 16.552285 17 16 C 17 15.447715 16.552284 15 16 15 z"/>
</svg>